<svg xmlns="http://www.w3.org/2000/svg" viewBox="0 0 1000 520"><defs><linearGradient id="b" x1="0" x2="1"><stop offset="0" stop-color="#17394a"/><stop offset=".5" stop-color="#2a5969"/><stop offset="1" stop-color="#102e3c"/></linearGradient></defs><g opacity=".3" stroke="#2c7083"><path d="M90 95H905M90 155H905M90 215H905M90 275H905M90 335H905M90 395H905"/><path d="M150 60V450M270 60V450M390 60V450M510 60V450M630 60V450M750 60V450M870 60V450"/></g><ellipse cx="505" cy="387" rx="350" ry="24" fill="#000" opacity=".28"/><g transform="translate(75 105)"><path d="M75 165C125 75 245 45 505 55C665 60 765 102 825 165C760 228 655 267 500 270C252 273 126 247 75 165Z" fill="url(#b)" stroke="#4ddfd6" stroke-width="2"/><path d="M730 113L850 38L820 154L850 292L725 218Z" fill="#163b4a" stroke="#38d6cc" stroke-width="2"/><path d="M632 85L680 10L710 102ZM632 245L680 320L710 228Z" fill="#173b49" stroke="#38d6cc" stroke-width="2"/><ellipse cx="190" cy="165" rx="54" ry="78" fill="#081820" stroke="#2b6978" stroke-width="2"/><path d="M250 78H550V252H250Z" fill="#0b2330" opacity=".55" stroke="#2c6878" stroke-width="2" stroke-dasharray="7 7"/><circle cx="572" cy="165" r="52" fill="#0b202a" stroke="#38d6cc" stroke-width="2"/><circle cx="572" cy="165" r="31" fill="none" stroke="#2f8b91" stroke-width="8"/><circle cx="572" cy="165" r="8" fill="#38d6cc"/></g><text x="112" y="472" fill="#6f9aa8" font-family="monospace" font-size="15" letter-spacing="4">SIMPLR-AUV // CONCEPTUAL TECHNICAL SILHOUETTE</text></svg>